<svg xmlns="http://www.w3.org/2000/svg" width="1000" height="1000" viewBox="0 0 1000 1000">
<g>
<path d="M 783.00 987.19 L 783.00 1000.00 L 217.00 1000.00 L 217.00 972.00 L 188.90 972.00 L 187.45 968.53 C186.51,966.28 186.00,961.47 185.99,954.78 C185.98,953.63 185.99,952.57 185.99,951.59 C186.02,945.80 186.04,942.88 184.58,941.42 C183.11,939.93 180.12,939.95 174.10,939.99 C173.10,939.99 172.01,940.00 170.83,940.00 L 156.90 940.00 L 155.45 936.53 C154.31,933.81 154.00,927.57 154.00,907.58 C154.00,879.39 153.51,876.42 149.05,877.40 C147.65,877.71 121.48,877.96 90.89,877.96 C43.01,877.95 35.11,878.16 34.05,879.43 C33.18,880.49 32.95,884.28 33.24,892.55 C33.64,903.68 33.57,904.24 31.45,905.63 C30.23,906.43 27.04,907.05 24.37,907.02 C21.69,906.98 15.11,906.93 9.75,906.90 L 0.00 906.84 L 0.00 781.00 L 62.98 781.00 L 63.50 687.50 L 78.75 687.22 L 94.00 686.95 L 94.00 625.00 L 125.00 625.00 L 125.00 562.00 L 156.00 562.00 L 156.00 437.00 L 188.00 437.00 L 188.00 374.00 L 312.97 374.00 L 313.50 436.50 L 344.25 436.76 L 375.00 437.03 L 375.00 281.05 L 406.50 280.50 L 407.05 249.00 L 375.00 249.00 L 375.00 218.03 L 406.25 217.76 L 437.50 217.50 L 437.78 202.25 L 438.05 187.00 L 407.00 187.00 L 407.00 155.00 L 438.00 155.00 L 438.00 124.00 L 594.00 124.00 L 594.00 155.00 L 626.00 155.00 L 626.00 187.00 L 593.95 187.00 L 594.22 202.25 L 594.50 217.50 L 625.75 217.76 L 657.00 218.03 L 657.00 249.00 L 625.95 249.00 L 626.50 280.50 L 641.75 280.78 L 657.00 281.05 L 657.00 437.00 L 751.00 437.00 L 751.20 408.25 C751.31,392.44 751.42,378.26 751.44,376.75 L 751.48 374.00 L 845.00 374.00 L 845.00 437.00 L 876.00 437.00 L 876.00 530.95 L 891.25 531.22 L 906.50 531.50 L 907.03 593.00 L 938.00 593.00 L 938.00 656.00 L 970.00 656.00 L 970.00 750.00 L 1000.00 750.00 L 1000.00 878.00 L 925.58 878.00 C884.65,878.00 850.45,878.27 849.58,878.61 C848.32,879.09 848.00,880.84 848.00,887.17 C848.00,891.55 847.51,896.05 846.91,897.17 C846.12,898.65 846.12,899.52 846.91,900.31 C848.57,901.97 848.22,904.38 846.13,905.69 C844.98,906.40 839.33,906.88 831.41,906.93 C821.77,906.99 818.21,907.36 817.15,908.42 C816.11,909.46 815.67,913.30 815.48,923.17 C814.76,959.90 814.38,968.02 813.35,969.05 C812.71,969.69 806.62,970.34 798.87,970.61 C787.95,970.98 785.27,971.37 784.25,972.72 C783.40,973.85 783.00,978.49 783.00,987.19 ZM 438.67 467.33 C439.91,468.58 466.51,468.09 467.80,466.80 C468.62,465.98 469.00,461.09 469.00,451.30 L 469.00 437.00 L 562.95 437.00 L 563.22 452.25 L 563.50 467.50 L 593.50 467.50 L 593.78 452.25 L 594.05 437.00 L 608.78 436.98 C616.87,436.98 624.07,436.61 624.76,436.17 C625.75,435.54 625.96,422.42 625.76,373.94 L 625.50 312.50 L 594.00 311.95 L 594.00 297.08 C594.00,284.45 593.76,282.12 592.42,281.61 C590.35,280.81 441.65,280.81 439.58,281.61 C438.24,282.12 438.00,284.45 438.00,297.11 L 438.00 312.00 L 407.00 312.00 L 407.00 372.92 C407.00,406.42 407.27,434.55 407.61,435.42 C408.12,436.76 410.45,437.00 423.11,437.00 L 438.00 437.00 L 438.00 451.83 C438.00,459.99 438.30,466.97 438.67,467.33 ZM 468.95 905.55 C469.47,906.07 476.67,906.50 484.95,906.50 L 500.00 906.50 L 500.10 862.00 C500.15,837.53 500.51,816.38 500.89,815.00 C501.58,812.52 501.69,812.50 514.30,812.22 C521.71,812.06 527.83,812.37 528.95,812.97 C530.35,813.72 531.09,813.66 531.66,812.75 C533.00,810.60 532.04,781.64 530.59,780.50 C529.82,779.90 525.04,779.70 518.63,780.00 C505.77,780.60 502.28,779.87 500.92,776.28 C500.37,774.83 499.94,768.21 499.97,761.57 C499.99,754.93 500.03,742.76 500.04,734.52 C500.05,726.28 500.39,719.21 500.80,718.80 C501.21,718.39 508.28,717.93 516.52,717.78 L 531.50 717.50 L 532.50 687.50 L 563.50 686.50 L 563.78 658.00 C563.93,642.33 563.81,628.48 563.50,627.22 C562.95,624.96 562.84,624.95 547.72,625.22 L 532.50 625.50 L 532.22 640.75 L 531.95 656.00 L 500.00 656.00 L 500.00 686.95 L 484.75 687.22 L 469.50 687.50 L 468.77 732.90 C468.36,757.87 467.76,778.57 467.43,778.90 C467.10,779.23 460.35,779.54 452.42,779.58 C444.49,779.62 437.87,779.85 437.69,780.08 C437.52,780.31 437.57,787.59 437.80,796.25 L 438.21 812.00 L 450.88 812.00 C460.73,812.00 464.05,812.35 465.78,813.56 L 468.00 815.11 L 468.00 859.86 C468.00,886.78 468.38,904.98 468.95,905.55 ZM 970.47 971.96 C970.86,972.58 970.10,973.00 968.62,973.00 C967.24,973.00 965.82,972.52 965.47,971.94 C965.02,971.22 950.67,970.94 920.32,971.07 C918.52,971.08 916.78,971.08 915.11,971.09 C882.39,971.23 874.57,971.26 873.54,968.63 C873.22,967.80 873.56,966.72 874.02,965.28 C874.09,965.05 874.17,964.81 874.24,964.56 C875.19,961.46 875.18,960.56 874.19,960.23 C873.24,959.91 872.97,953.97 873.04,934.78 L 873.13 909.74 L 870.37 906.86 C868.40,904.81 867.92,903.68 868.69,902.91 C869.46,902.14 870.37,902.48 871.87,904.09 C873.72,906.08 874.17,906.18 875.73,904.92 C877.22,903.73 884.10,903.58 919.00,904.00 C962.76,904.53 964.13,904.41 967.64,900.00 C968.30,899.18 969.18,898.84 969.60,899.26 C970.01,899.68 969.56,900.60 968.59,901.31 C967.01,902.47 966.98,902.74 968.36,903.88 C969.21,904.59 970.67,905.28 971.61,905.41 C973.19,905.65 973.31,908.02 973.09,935.98 C972.89,961.06 972.59,966.70 971.34,968.60 C970.51,969.87 970.12,971.38 970.47,971.96 ZM 876.00 906.00 L 876.00 969.00 L 970.00 969.00 L 970.00 906.00 ZM 501.09 497.61 C501.97,498.67 505.46,499.00 515.87,498.98 C523.37,498.98 530.08,498.60 530.78,498.16 C531.74,497.55 531.99,493.79 531.78,482.92 L 531.50 468.50 L 500.50 468.50 L 500.22 482.36 C500.03,491.73 500.32,496.67 501.09,497.61 ZM 868.76 964.25 C868.29,965.65 864.79,966.46 863.74,965.40 C862.55,964.22 864.02,963.00 866.64,963.00 C868.21,963.00 869.01,963.47 868.76,964.25 ZM 866.00 900.00 C866.00,900.55 865.55,901.00 865.00,901.00 C864.45,901.00 864.00,900.55 864.00,900.00 C864.00,899.45 864.45,899.00 865.00,899.00 C865.55,899.00 866.00,899.45 866.00,900.00 Z" fill="rgb(15,9,35)"/>
<path d="M 438.67 467.33 C438.30,466.97 438.00,459.99 438.00,451.83 L 438.00 437.00 L 423.11 437.00 C410.45,437.00 408.12,436.76 407.61,435.42 C407.27,434.55 407.00,406.42 407.00,372.92 L 407.00 312.00 L 438.00 312.00 L 438.00 297.11 C438.00,284.45 438.24,282.12 439.58,281.61 C441.65,280.81 590.35,280.81 592.42,281.61 C593.76,282.12 594.00,284.45 594.00,297.08 L 594.00 311.95 L 625.50 312.50 L 625.76 373.94 C625.96,422.42 625.75,435.54 624.76,436.17 C624.07,436.61 616.87,436.98 608.78,436.98 L 594.05 437.00 L 593.78 452.25 L 593.50 467.50 L 563.50 467.50 L 563.22 452.25 L 562.95 437.00 L 469.00 437.00 L 469.00 451.30 C469.00,461.09 468.62,465.98 467.80,466.80 C466.51,468.09 439.91,468.58 438.67,467.33 ZM 783.00 987.19 C783.00,978.49 783.40,973.85 784.25,972.72 C785.27,971.37 787.95,970.98 798.87,970.61 C806.62,970.34 812.71,969.69 813.35,969.05 C814.38,968.02 814.76,959.90 815.48,923.17 C815.67,913.30 816.11,909.46 817.15,908.42 C818.21,907.36 821.77,906.99 831.41,906.93 C839.33,906.88 844.98,906.40 846.13,905.69 C848.22,904.38 848.57,901.97 846.91,900.31 C846.12,899.52 846.12,898.65 846.91,897.17 C847.51,896.05 848.00,891.55 848.00,887.17 C848.00,880.84 848.32,879.09 849.58,878.61 C850.45,878.27 884.65,878.00 925.58,878.00 L 1000.00 878.00 L 1000.00 1000.00 L 783.00 1000.00 ZM 0.00 906.84 L 9.75 906.90 C15.11,906.93 21.69,906.98 24.37,907.02 C27.04,907.05 30.23,906.43 31.45,905.63 C33.57,904.24 33.64,903.68 33.24,892.55 C32.95,884.28 33.18,880.49 34.05,879.43 C35.11,878.16 43.01,877.95 90.89,877.96 C121.48,877.96 147.65,877.71 149.05,877.40 C153.51,876.42 154.00,879.39 154.00,907.58 C154.00,927.57 154.31,933.81 155.45,936.53 L 156.90 940.00 L 170.83 940.00 C172.01,940.00 173.10,939.99 174.10,939.99 C180.12,939.95 183.11,939.93 184.58,941.42 C186.04,942.88 186.02,945.80 185.99,951.59 C185.99,952.57 185.98,953.63 185.99,954.78 C186.00,961.47 186.51,966.28 187.45,968.53 L 188.90 972.00 L 217.00 972.00 L 217.00 1000.00 L 0.00 1000.00 L 0.00 906.84 ZM 626.00 187.00 L 626.00 170.93 C626.00,186.30 626.08,186.89 628.12,187.54 C629.29,187.91 643.24,187.88 659.12,187.48 L 688.00 186.75 L 688.00 312.00 L 718.97 312.00 L 719.50 373.50 L 782.25 373.76 L 841.34 374.00 L 751.48 374.00 L 751.44 376.75 C751.42,378.26 751.31,392.44 751.20,408.25 L 751.00 437.00 L 657.00 437.00 L 657.00 281.05 L 641.75 280.78 L 626.50 280.50 L 625.95 249.00 L 657.00 249.00 L 657.00 218.03 L 625.75 217.76 L 594.50 217.50 L 594.22 202.25 L 593.95 187.00 ZM 313.50 436.50 L 312.97 374.00 L 313.00 374.00 L 313.11 371.75 C313.16,370.51 313.15,364.33 313.07,358.00 C313.00,351.67 313.38,345.83 313.93,345.00 C314.71,343.83 318.02,343.39 329.21,343.00 L 343.50 342.50 L 344.50 187.50 L 375.75 187.24 L 407.00 186.97 L 407.00 187.00 L 438.05 187.00 L 437.78 202.25 L 437.50 217.50 L 406.25 217.76 L 375.00 218.03 L 375.00 249.00 L 407.05 249.00 L 406.50 280.50 L 375.00 281.05 L 375.00 437.03 L 344.25 436.76 ZM 468.95 905.55 C468.38,904.98 468.00,886.78 468.00,859.86 L 468.00 815.11 L 465.78 813.56 C464.05,812.35 460.73,812.00 450.88,812.00 L 438.21 812.00 L 437.80 796.25 C437.57,787.59 437.52,780.31 437.69,780.08 C437.87,779.85 444.49,779.62 452.42,779.58 C460.35,779.54 467.10,779.23 467.43,778.90 C467.76,778.57 468.36,757.87 468.77,732.90 L 469.50 687.50 L 484.75 687.22 L 500.00 686.95 L 500.00 656.00 L 531.95 656.00 L 532.22 640.75 L 532.50 625.50 L 547.72 625.22 C562.84,624.95 562.95,624.96 563.50,627.22 C563.81,628.48 563.93,642.33 563.78,658.00 L 563.50 686.50 L 532.50 687.50 L 531.50 717.50 L 516.52 717.78 C508.28,717.93 501.21,718.39 500.80,718.80 C500.39,719.21 500.05,726.28 500.04,734.52 C500.03,742.76 499.99,754.93 499.97,761.57 C499.94,768.21 500.37,774.83 500.92,776.28 C502.28,779.87 505.77,780.60 518.63,780.00 C525.04,779.70 529.82,779.90 530.59,780.50 C532.04,781.64 533.00,810.60 531.66,812.75 C531.09,813.66 530.35,813.72 528.95,812.97 C527.83,812.37 521.71,812.06 514.30,812.22 C501.69,812.50 501.58,812.52 500.89,815.00 C500.51,816.38 500.15,837.53 500.10,862.00 L 500.00 906.50 L 484.95 906.50 C476.67,906.50 469.47,906.07 468.95,905.55 ZM 970.47 971.96 C970.12,971.38 970.51,969.87 971.34,968.60 C972.59,966.70 972.89,961.06 973.09,935.98 C973.31,908.02 973.19,905.65 971.61,905.41 C970.67,905.28 969.21,904.59 968.36,903.88 C966.98,902.74 967.01,902.47 968.59,901.31 C969.56,900.60 970.01,899.68 969.60,899.26 C969.18,898.84 968.30,899.18 967.64,900.00 C964.13,904.41 962.76,904.53 919.00,904.00 C884.10,903.58 877.22,903.73 875.73,904.92 C874.17,906.18 873.72,906.08 871.87,904.09 C870.37,902.48 869.46,902.14 868.69,902.91 C867.92,903.68 868.40,904.81 870.37,906.86 L 873.13 909.74 L 873.04 934.78 C872.97,953.97 873.24,959.91 874.19,960.23 C875.18,960.56 875.19,961.46 874.24,964.56 C874.17,964.81 874.09,965.05 874.02,965.28 C873.56,966.72 873.22,967.80 873.54,968.63 C874.57,971.26 882.39,971.23 915.11,971.09 C916.78,971.08 918.52,971.08 920.32,971.07 C950.67,970.94 965.02,971.22 965.47,971.94 C965.82,972.52 967.24,973.00 968.62,973.00 C970.10,973.00 970.86,972.58 970.47,971.96 ZM 501.09 497.61 C500.32,496.67 500.03,491.73 500.22,482.36 L 500.50 468.50 L 531.50 468.50 L 531.78 482.92 C531.99,493.79 531.74,497.55 530.78,498.16 C530.08,498.60 523.37,498.98 515.87,498.98 C505.46,499.00 501.97,498.67 501.09,497.61 ZM 868.76 964.25 C869.01,963.47 868.21,963.00 866.64,963.00 C864.02,963.00 862.55,964.22 863.74,965.40 C864.79,966.46 868.29,965.65 868.76,964.25 ZM 866.00 900.00 C866.00,899.45 865.55,899.00 865.00,899.00 C864.45,899.00 864.00,899.45 864.00,900.00 C864.00,900.55 864.45,901.00 865.00,901.00 C865.55,901.00 866.00,900.55 866.00,900.00 Z" fill="rgb(17,34,104)"/>
<path d="M 0.00 0.00 L 1000.00 0.00 L 1000.00 750.00 L 970.00 750.00 L 970.00 656.00 L 938.00 656.00 L 938.00 593.00 L 907.03 593.00 L 906.50 531.50 L 891.25 531.22 L 876.00 530.95 L 876.00 437.00 L 845.00 437.00 L 845.00 374.00 L 841.34 374.00 L 782.25 373.76 L 719.50 373.50 L 718.97 312.00 L 688.00 312.00 L 688.00 186.75 L 659.12 187.48 C658.41,187.50 657.70,187.52 657.00,187.53 L 657.00 155.00 L 626.00 155.00 L 626.00 124.00 L 657.00 124.00 L 657.00 93.00 L 626.00 93.00 L 626.00 62.00 L 657.00 62.00 L 657.00 30.00 L 594.00 30.00 L 594.00 124.00 L 532.00 124.00 L 532.00 93.00 L 500.00 93.00 L 500.00 62.00 L 532.00 62.00 L 532.00 30.00 L 469.00 30.00 L 469.00 124.00 L 438.00 124.00 L 438.00 62.00 L 407.00 62.00 L 407.00 93.00 L 344.00 93.00 L 344.00 62.00 L 313.00 62.00 L 313.00 187.00 L 344.00 187.00 L 344.00 124.00 L 407.00 124.00 L 407.00 186.97 L 375.75 187.24 L 344.50 187.50 L 343.50 342.50 L 329.21 343.00 C318.02,343.39 314.71,343.83 313.93,345.00 C313.38,345.83 313.00,351.67 313.07,358.00 C313.15,364.33 313.16,370.51 313.11,371.75 L 313.00 374.00 L 188.00 374.00 L 188.00 437.00 L 156.00 437.00 L 156.00 562.00 L 125.00 562.00 L 125.00 625.00 L 94.00 625.00 L 94.00 686.95 L 78.75 687.22 L 63.50 687.50 L 62.98 781.00 L 0.00 781.00 ZM 63.00 155.00 L 63.00 187.00 L 156.00 187.00 L 156.00 93.00 L 94.00 93.00 L 94.00 62.00 L 156.00 62.00 L 156.00 30.00 L 63.00 30.00 L 63.00 124.00 L 125.00 124.00 L 125.00 155.00 ZM 219.00 62.00 L 219.00 187.00 L 250.00 187.00 L 250.00 62.00 L 282.00 62.00 L 282.00 30.00 L 188.00 30.00 L 188.00 62.00 ZM 751.00 155.00 L 751.00 62.00 L 813.00 62.00 L 813.00 30.00 L 751.00 30.00 L 751.00 62.00 L 719.00 62.00 L 719.00 155.00 ZM 813.00 62.00 L 813.00 155.00 L 845.00 155.00 L 845.00 62.00 L 813.00 62.00 ZM 907.00 93.00 L 907.00 187.00 L 938.00 187.00 L 938.00 93.00 ZM 344.00 62.00 L 407.00 62.00 L 407.00 30.00 L 344.00 30.00 ZM 938.00 93.00 L 970.00 93.00 L 970.00 30.00 L 938.00 30.00 L 938.00 93.00 ZM 751.00 155.00 L 751.00 187.00 L 813.00 187.00 L 813.00 155.00 ZM 907.00 93.00 L 907.00 30.00 L 876.00 30.00 L 876.00 93.00 ZM 657.00 124.00 L 657.00 155.00 L 688.00 155.00 L 688.00 124.00 ZM 657.00 62.00 L 657.00 93.00 L 688.00 93.00 L 688.00 62.00 ZM 532.00 62.00 L 532.00 93.00 L 563.00 93.00 L 563.00 62.00 ZM 626.73 186.50 C626.04,185.08 626.00,181.51 626.00,170.93 C626.00,180.14 626.20,184.75 626.73,186.50 ZM 634.66 187.79 C630.97,187.77 628.58,187.68 628.12,187.54 C628.03,187.51 627.94,187.48 627.85,187.45 C628.98,187.58 631.47,187.70 634.66,187.79 Z" fill="rgb(205,1,43)"/>
<path d="M 876.00 937.50 L 876.00 906.00 L 923.00 906.00 L 970.00 906.00 L 970.00 937.50 L 970.00 969.00 L 923.00 969.00 L 876.00 969.00 L 876.00 937.50 ZM 627.25 187.34 C626.32,186.96 626.00,182.71 626.00,170.92 L 626.00 155.00 L 610.00 155.00 L 594.00 155.00 L 594.00 92.50 L 594.00 30.00 L 625.50 30.00 L 657.00 30.00 L 657.00 46.00 L 657.00 62.00 L 672.50 62.00 L 688.00 62.00 L 688.00 77.50 L 688.00 93.00 L 672.50 93.00 L 657.00 93.00 L 657.00 108.50 L 657.00 124.00 L 672.50 124.00 L 688.00 124.00 L 688.00 139.50 L 688.00 155.00 L 672.50 155.00 L 657.00 155.00 L 657.00 171.50 L 657.00 188.00 L 642.75 187.92 C634.91,187.88 627.94,187.62 627.25,187.34 ZM 657.00 139.50 L 657.00 124.00 L 641.50 124.00 L 626.00 124.00 L 626.00 139.50 L 626.00 155.00 L 641.50 155.00 L 657.00 155.00 L 657.00 139.50 ZM 657.00 77.50 L 657.00 62.00 L 641.50 62.00 L 626.00 62.00 L 626.00 77.50 L 626.00 93.00 L 641.50 93.00 L 657.00 93.00 L 657.00 77.50 ZM 63.00 171.00 L 63.00 155.00 L 94.00 155.00 L 125.00 155.00 L 125.00 139.50 L 125.00 124.00 L 94.00 124.00 L 63.00 124.00 L 63.00 77.00 L 63.00 30.00 L 109.50 30.00 L 156.00 30.00 L 156.00 46.00 L 156.00 62.00 L 125.00 62.00 L 94.00 62.00 L 94.00 77.50 L 94.00 93.00 L 125.00 93.00 L 156.00 93.00 L 156.00 140.00 L 156.00 187.00 L 109.50 187.00 L 63.00 187.00 L 63.00 171.00 ZM 219.00 124.50 L 219.00 62.00 L 203.50 62.00 L 188.00 62.00 L 188.00 46.00 L 188.00 30.00 L 235.00 30.00 L 282.00 30.00 L 282.00 46.00 L 282.00 62.00 L 266.00 62.00 L 250.00 62.00 L 250.00 124.50 L 250.00 187.00 L 234.50 187.00 L 219.00 187.00 L 219.00 124.50 ZM 313.00 124.50 L 313.00 62.00 L 328.50 62.00 L 344.00 62.00 L 344.00 46.00 L 344.00 30.00 L 375.50 30.00 L 407.00 30.00 L 407.00 46.00 L 407.00 62.00 L 422.50 62.00 L 438.00 62.00 L 438.00 108.50 L 438.00 155.00 L 422.50 155.00 L 407.00 155.00 L 407.00 139.50 L 407.00 124.00 L 375.50 124.00 L 344.00 124.00 L 344.00 155.50 L 344.00 187.00 L 328.50 187.00 L 313.00 187.00 L 313.00 124.50 ZM 407.00 77.50 L 407.00 62.00 L 375.50 62.00 L 344.00 62.00 L 344.00 77.50 L 344.00 93.00 L 375.50 93.00 L 407.00 93.00 L 407.00 77.50 ZM 751.00 171.00 L 751.00 155.00 L 735.00 155.00 L 719.00 155.00 L 719.00 108.50 L 719.00 62.00 L 735.00 62.00 L 751.00 62.00 L 751.00 46.00 L 751.00 30.00 L 782.00 30.00 L 813.00 30.00 L 813.00 46.00 L 813.00 62.00 L 829.00 62.00 L 845.00 62.00 L 845.00 108.50 L 845.00 155.00 L 829.00 155.00 L 813.00 155.00 L 813.00 171.00 L 813.00 187.00 L 782.00 187.00 L 751.00 187.00 L 751.00 171.00 ZM 813.00 108.50 L 813.00 62.00 L 782.00 62.00 L 751.00 62.00 L 751.00 108.50 L 751.00 155.00 L 782.00 155.00 L 813.00 155.00 L 813.00 108.50 ZM 907.00 140.00 L 907.00 93.00 L 891.50 93.00 L 876.00 93.00 L 876.00 61.50 L 876.00 30.00 L 891.50 30.00 L 907.00 30.00 L 907.00 61.50 L 907.00 93.00 L 922.50 93.00 L 938.00 93.00 L 938.00 61.50 L 938.00 30.00 L 954.00 30.00 L 970.00 30.00 L 970.00 61.50 L 970.00 93.00 L 954.00 93.00 L 938.00 93.00 L 938.00 140.00 L 938.00 187.00 L 922.50 187.00 L 907.00 187.00 L 907.00 140.00 ZM 469.00 77.00 L 469.00 30.00 L 500.50 30.00 L 532.00 30.00 L 532.00 46.00 L 532.00 62.00 L 547.50 62.00 L 563.00 62.00 L 563.00 77.50 L 563.00 93.00 L 547.50 93.00 L 532.00 93.00 L 532.00 108.50 L 532.00 124.00 L 500.50 124.00 L 469.00 124.00 L 469.00 77.00 ZM 532.00 77.50 L 532.00 62.00 L 516.00 62.00 L 500.00 62.00 L 500.00 77.50 L 500.00 93.00 L 516.00 93.00 L 532.00 93.00 L 532.00 77.50 Z" fill="rgb(228,181,7)"/>
</g>
</svg>